# xmcd
# Copyright (C) 1995-1998 Ti Kan
#
# Track frame offsets:
#       150
#       18061
#       36893
#       54706
#       71154
#       91222
#       109607
#       125257
#       143635
#       160038
#       175104
#       191432
#
# Disc length: 2718 seconds
#
# Revision: 0
# Processed by: cddbd v1.5.2PL0 Copyright (c) Steve Scherf et al.
# Submitted via: CD-Transfer v1.0
#
DISCID=940a9c0c
DTITLE=Caroline Chevin - Feel Real [CD)
DYEAR=08
DGENRE=
TTITLE0=Whatever It Takes
TTITLE1=Feel Real
TTITLE2=Gotta Be More
TTITLE3=Frogs And Princes
TTITLE4=Let's Do It Again Feat. Seven
TTITLE5=I Will Be There
TTITLE6=Could Have Let Me Know
TTITLE7=Whirlpool
TTITLE8=Jewel
TTITLE9=King Of Pain
TTITLE10=Funky Town
TTITLE11=Belief
EXTD=
EXTT0=
EXTT1=
EXTT2=
EXTT3=
EXTT4=
EXTT5=
EXTT6=
EXTT7=
EXTT8=
EXTT9=
EXTT10=
EXTT11=
PLAYORDER=
